<?xml version="1.0" encoding="utf-8"?>
<!-- Generator: Adobe Illustrator 19.1.0, SVG Export Plug-In . SVG Version: 6.00 Build 0)  -->
<svg version="1.1" id="Layer_1" xmlns="http://www.w3.org/2000/svg" xmlns:xlink="http://www.w3.org/1999/xlink" x="0px" y="0px"
	 viewBox="0 0 1280 800" style="enable-background:new 0 0 1280 800;" xml:space="preserve">
<style type="text/css">
	.st0{fill:none;}
	.st1{fill:#CEB54D;}
	.st2{font-family:'PT Sans Caption';}
	.st3{font-size:63px;}
	.st4{font-size:22px;}
</style>
<path d="M807.3,441.4H496.8c-6.6,0-12-5.4-12-12v-64.1c0-6.6,5.4-12,12-12h310.4c6.6,0,12,5.4,12,12v64.1
	C819.3,436,813.9,441.4,807.3,441.4z"/>
<rect x="508" y="376.8" class="st0" width="315.3" height="45.9"/>
<text transform="matrix(1 0 0 1 546.1299 420.8795)" class="st1 st2 st3">NIMBLE</text>
<circle class="st1" cx="492.4" cy="397.3" r="44"/>
<g id="XMLID_4_">
	<path d="M525.9,382.5l-3.9,14.4l-0.4,1l-5.1,16.1c0,0,0,0,0,0c-2,4.7-6.1,8.1-10.6,10.4c-4.5,2.3-9.5,3.4-13.5,3.4
		c-4,0-8.9-1.1-13.5-3.4c-4.5-2.3-8.6-5.7-10.6-10.4c0,0,0,0,0,0l-5.1-16.1l-0.4-1l-3.9-14.4l5.8,2.7c0.9-1,2-2.1,4.2-3.5l3.4-7.8
		l5.6,4.9c2.9-0.8,5.8-1.5,9.2-1.5l5.2-5.6l5.2,5.6c3.4-0.1,6.4,0.7,9.2,1.5l5.6-4.9l3.4,7.8c2.2,1.4,3.3,2.5,4.2,3.5L525.9,382.5z"
		/>
	<g id="XMLID_6_">
		<g>
			<path class="st1" d="M514.4,402.7l-3.3,4.8l-6.3,2.1l-12.1-7.6c-0.1-0.1-0.3-0.1-0.4,0l-12.1,7.6l-6.3-2.1l-3.3-4.8
				c1.2-2.6,3.5-4.9,6.9-6.7c3.9-2.1,9.2-3.4,15-3.4c5.7,0,11,1.3,15,3.4C510.8,397.8,513.2,400.1,514.4,402.7z"/>
		</g>
		<g>
		</g>
	</g>
	<g id="XMLID_5_">
		<g>
			<path class="st1" d="M522.3,387l-2.8,9.1l-1.7,5l-1.6-0.5c0,0-0.1,0-0.1,0c-1.6-2.7-4.2-5.1-7.5-6.8c-4.4-2.3-10-3.7-16.2-3.7
				c-6.2,0-11.9,1.4-16.3,3.7c-3.3,1.8-5.9,4.1-7.4,6.8c0,0-0.1,0-0.1,0L467,401l-1.7-5l-2.8-9.1l2.8,1.3l0.6-0.7
				c1.2-1.3,1.8-2.2,4.7-3.9l0.3-0.2l2.3-5.3l4,3.5l0.7-0.2c3.2-0.9,6.3-1.7,9.8-1.5l0.6,0l4.1-4.4l4.1,4.4l0.6,0
				c3.5-0.2,6.5,0.7,9.8,1.5l0.7,0.2l4-3.5l2.3,5.3l0.3,0.2c2.9,1.8,3.5,2.6,4.7,3.9l0.6,0.7L522.3,387z"/>
		</g>
		<g>
		</g>
	</g>
</g>
<path class="st1" d="M807.3,441.4h-8.9c-6.6,0-12-5.4-12-12v-2.3c0-6.6,5.4-12,12-12h8.9c6.6,0,12,5.4,12,12v2.3
	C819.3,436,813.9,441.4,807.3,441.4z"/>
<rect x="792" y="419.5" class="st0" width="22.5" height="16.5"/>
<text transform="matrix(1 0 0 1 793.2358 434.9206)" class="st2 st4">JS</text>
</svg>
