<svg width="131" height="33" xmlns="http://www.w3.org/2000/svg" xmlns:xlink="http://www.w3.org/1999/xlink">
 <!-- Created with Method Draw - http://github.com/duopixel/Method-Draw/ -->
 <defs>
  <linearGradient id="svg_128" x1="0" y1="0" x2="0" y2="1">
   <stop stop-color="#8282ff" stop-opacity="0.992188" offset="0"/>
   <stop stop-color="#0000bf" stop-opacity="0.996094" offset="0.472656"/>
   <stop stop-color="#9393e2" stop-opacity="0.996094" offset="1"/>
  </linearGradient>
  <linearGradient id="svg_72">
   <stop offset="0" id="svg_118" stop-color="#f7c41a"/>
   <stop offset="1" id="svg_117" stop-color="#bd9510"/>
  </linearGradient>
  <radialGradient xlink:href="#svg_72" id="svg_67" gradientUnits="userSpaceOnUse" gradientTransform="matrix(-0.0234034,-1.430605,0.9942623,-0.01626526,71.056847,1015.1237)" cx="407.17349" cy="414.17612" fx="407.17349" fy="414.17612" r="80.321426"/>
 </defs>
 <g>
  <title>background</title>
  <rect x="-1" y="-1" width="133" height="35" id="canvas_background" fill="#0fffff"/>
  <g id="canvasGrid" display="none">
   <rect id="svg_2" width="100%" height="100%" x="0" y="0" stroke-width="0" fill="url(#gridpattern)"/>
  </g>
 </g>
 <g>
  <title>Layer 1</title>
  <rect fill="url(#svg_128)" stroke-width="1.5" x="3.5" y="8.5" width="125.999996" height="21" id="svg_1" rx="4" stroke="#000000"/>

  <metadata id="svg_71">image/svg+xml</metadata>
  <g id="svg_120">
   <g id="svg_69" display="none" transform="matrix(0.237545 0 0 0.244661 174.947 123.042)">
    <image y="-513.360712" x="-1191.573044" id="svg_70" xlink:href="file:///home/tomasi/Projects/nimrod/logo/new-symbols.png" height="329" width="800"/>
   </g>
   <g id="svg_62" display="inline" transform="matrix(0.237545 0 0 0.244661 174.947 123.042)">
    <g id="svg_63">
     <path stroke="#000000" id="svg_68" d="m-626.479492,-497.268951c0,0 -6.124695,5.377106 -12.34375,10.687469c-6.397705,-0.225281 -18.888489,1.38269 -25.6875,4.125c-6.263367,-4.400513 -11.8125,-9.28125 -11.8125,-9.28125c0,0 -4.698853,9.015656 -7.656311,14.28125c-4.385925,2.587036 -8.762756,5.431427 -12.687439,9.28125c-4.639038,-2.04303 -10.1875,-4.65625 -10.1875,-4.65625l6.25,27.875l0.9375,1.875l-1.09375,-1.875c0,0 8.861694,24.011963 14.812439,40.000031c25.215942,36.894928 89.616211,39.464264 117.687561,0.71875c5.378662,-13.443359 11.62616,-31.711639 13.90625,-38.437531l1.25,-2.8125l5.90625,-26.781219c0,0 -6.872375,2.50882 -11.0625,4.281219c-2.40448,-3.406189 -6.051819,-7.013794 -11.25,-9.46875c-3.05542,-6.204956 -7.5,-14.656219 -7.5,-14.656219c0,0 -5.332703,4.384857 -11.4375,9.124969c-8.247681,-1.688446 -18.234863,-3.726624 -26.625,-3.218719c-5.711548,-5.20639 -11.40625,-11.0625 -11.40625,-11.0625z" stroke-miterlimit="4" stroke-width="3" fill="none"/>
     <path stroke="#ffffff" id="svg_66" d="m-700.597778,-444.950623l-6.25,-27.857025c0,0 5.540039,2.59903 10.179016,4.642029c3.924011,-3.84903 8.291992,-6.698029 12.67804,-9.285004c2.957947,-5.265991 7.678955,-14.286011 7.678955,-14.286011c0,0 5.521973,4.88504 11.785034,9.286011c6.79895,-2.742981 19.316956,-4.333008 25.714966,-4.107025c6.218994,-5.310944 12.321045,-10.714966 12.321045,-10.714966c0,0 5.71698,5.865021 11.428955,11.071991c8.390015,-0.507996 18.359009,1.526001 26.606995,3.213989c6.10498,-4.73996 11.427979,-9.106964 11.427979,-9.106964c0,0 4.445007,8.437988 7.5,14.642975c5.199036,2.455017 8.846008,6.057983 11.25,9.463989c4.19104,-1.771973 11.072021,-4.28598 11.072021,-4.28598l-5.893005,26.78598l-6.606995,14.821014c0,0 -4.310974,-2.699982 -7.322021,-4.284973c-16.938965,-45.692017 -106.71698,-37.02005 -119.463928,-0.715027c-5.782043,1.306 -8.393066,2.322052 -8.393066,2.322052l-5.713989,-11.607056z" stroke-width="1px" fill="url(#svg_67)"/>
     <path id="svg_65" d="m-700.776733,-444.950623c0,0 8.870972,24.012024 14.82196,40.000031c25.216003,36.894989 89.606995,39.459991 117.677979,0.713989c6.643005,-16.602997 15,-41.607025 15,-41.607025l-6.070984,11.42804l-7.63501,-0.357025l-11.828979,15l-16.964966,5l-31.071045,-17.856995l-31.25,17.5l-16.963989,-4.820984l-11.544006,-15.598999l-7.562988,2.026978l-6.607971,-11.428009z" fill="#ffffff"/>
     <path stroke="#000000" id="svg_64" d="m-625.975037,-466.054688c26.962646,-0.036804 50.759277,9.323303 58.964294,31.098236c0.11438,0.060211 0.257141,0.124298 0.375,0.1875l-0.34375,0l-11.84375,15l-16.9375,5l-31.09375,-17.875l-31.25,17.5l-16.968811,-4.8125l-11.317505,-16.029572c6.012085,-17.4758 32.671936,-30.030823 60.415771,-30.068665z" stroke-miterlimit="4" stroke-width="1.1" fill="none"/>
    </g>
   </g>
  </g>
  <text fill="#ffff00" stroke-width="0" stroke-opacity="null" x="37.680761" y="-31.48297" id="svg_140" font-size="24" font-family="Helvetica, Arial, sans-serif" text-anchor="left" xml:space="preserve" transform="matrix(0.83743 0 0 0.612484 27.1921 42.498)" stroke="#000000">nimble</text>
 </g>
</svg>
