<svg width="131" height="33" xmlns="http://www.w3.org/2000/svg" xmlns:xlink="http://www.w3.org/1999/xlink">
 <!-- Created with Method Draw - http://github.com/duopixel/Method-Draw/ -->
 <defs>
  <linearGradient id="svg_130" x1="0" y1="0" x2="0" y2="1">
   <stop stop-color="#ffff00" stop-opacity="0.99609" offset="0"/>
   <stop stop-color="#bfbf00" stop-opacity="0.99609" offset="0.47266"/>
   <stop stop-color="#ffffbf" stop-opacity="0.99609" offset="1"/>
  </linearGradient>
  <linearGradient id="svg_72">
   <stop offset="0" id="svg_118" stop-color="#f7c41a"/>
   <stop offset="1" id="svg_117" stop-color="#bd9510"/>
  </linearGradient>
  <radialGradient xlink:href="#svg_72" id="svg_67" gradientUnits="userSpaceOnUse" gradientTransform="matrix(-0.0234034,-1.430605,0.9942623,-0.01626526,71.056847,1015.1237)" cx="407.17349" cy="414.17612" fx="407.17349" fy="414.17612" r="80.32143"/>
 </defs>
 <g>
  <title>background</title>
  <g id="canvasGrid" display="none">
   <rect id="svg_2" width="100%" height="100%" x="0" y="0" stroke-width="0" fill="url(#gridpattern)"/>
  </g>
 </g>
 <g>
  <title>Layer 1</title>

  <metadata id="svg_71">image/svg+xml</metadata>
  <rect fill="url(#svg_130)" stroke-width="1.5" x="2.5" y="7.5" width="126" height="21" id="svg_129" rx="4" stroke="#000000"/>
  <g id="svg_139">
   <g id="svg_132" display="none" transform="matrix(0.237545 0 0 0.259838 174.947 130.589)">
    <image y="-517.2091" x="-1199.99293" id="svg_131" xlink:href="file:///home/tomasi/Projects/nimrod/logo/new-symbols.png" height="329" width="800"/>
   </g>
   <g id="svg_138" display="inline" transform="matrix(0.237545 0 0 0.259838 174.947 130.589)">
    <g id="svg_137">
     <path id="svg_133" d="m-634.89941,-501.11734c0,0 -6.12469,5.37711 -12.34375,10.6875c-6.39764,-0.22531 -18.88843,1.38269 -25.6875,4.125c-6.26331,-4.40057 -11.8125,-9.28125 -11.8125,-9.28125c0,0 -4.69885,9.01563 -7.65625,14.28125c-4.38599,2.58704 -8.76276,5.4314 -12.6875,9.28125c-4.63898,-2.04303 -10.1875,-4.65625 -10.1875,-4.65625l6.25,27.875l0.9375,1.875l-1.09375,-1.875c0,0 8.86169,24.01193 14.8125,40c25.21594,36.89493 89.61621,39.46426 117.68756,0.71875c5.3786,-13.44336 11.6261,-31.71161 13.90625,-38.4375l1.25,-2.8125l5.90619,-26.78125c0,0 -6.87231,2.50885 -11.06244,4.28125c-2.40454,-3.40619 -6.05188,-7.01379 -11.25006,-9.46875c-3.05542,-6.20499 -7.5,-14.65625 -7.5,-14.65625c0,0 -5.33264,4.38489 -11.4375,9.125c-8.24768,-1.68845 -18.23486,-3.72665 -26.625,-3.21875c-5.71155,-5.20636 -11.40625,-11.0625 -11.40625,-11.0625z" stroke-miterlimit="4" stroke-width="3" fill="none" stroke="#000000"/>
     <path id="svg_134" d="m-709.01764,-448.79898l-6.25,-27.85703c0,0 5.53998,2.59903 10.17902,4.642c3.92401,-3.849 8.29199,-6.698 12.67798,-9.28497c2.95795,-5.26605 7.67896,-14.28601 7.67896,-14.28601c0,0 5.52203,4.88501 11.78503,9.28601c6.79901,-2.74301 19.31702,-4.33301 25.71503,-4.10703c6.21893,-5.31097 12.32098,-10.715 12.32098,-10.715c0,0 5.71698,5.86499 11.42896,11.07202c8.39001,-0.50803 18.35901,1.526 26.60706,3.21399c6.10498,-4.73999 11.42798,-9.10699 11.42798,-9.10699c0,0 4.44495,8.43799 7.49994,14.64301c5.19904,2.45499 8.84601,6.05798 11.25,9.46399c4.1911,-1.772 11.07208,-4.28601 11.07208,-4.28601l-5.89307,26.78601l-6.60699,14.82098c0,0 -4.31097,-2.69995 -7.32196,-4.28497c-16.93903,-45.69202 -106.71704,-37.02002 -119.46399,-0.71503c-5.78198,1.306 -8.39301,2.32205 -8.39301,2.32205l-5.71399,-11.60703z" stroke-width="1px" fill="url(#svg_67)" stroke="#ffffff"/>
     <path id="svg_135" d="m-709.19666,-448.79898c0,0 8.87097,24.01199 14.82202,40c25.21594,36.89499 89.60693,39.45999 117.67792,0.71399c6.64301,-16.603 15,-41.60699 15,-41.60699l-6.07098,11.42801l-7.63501,-0.35703l-11.82892,15l-16.96503,5l-31.07098,-17.85696l-31.25006,17.49997l-16.96399,-4.82098l-11.54401,-15.599l-7.56293,2.02698l-6.60803,-11.42798z" fill="#ffffff"/>
     <path id="svg_136" d="m-634.39496,-469.90305c26.96265,-0.0368 50.75934,9.32327 58.96429,31.09821c0.11438,0.06021 0.25714,0.1243 0.375,0.1875l-0.34375,0l-11.84375,15l-16.9375,5l-31.09375,-17.875l-31.25,17.5l-16.96875,-4.8125l-11.3175,-16.02954c6.01208,-17.4758 32.67194,-30.03082 60.41571,-30.06866z" stroke-miterlimit="4" stroke-width="1.1" fill="none" stroke="#000000"/>
    </g>
   </g>
  </g>
  <text fill="#0000ff" stroke-width="0" x="23.35121" y="-31.48297" id="svg_141" font-size="24" font-family="Helvetica, Arial, sans-serif" text-anchor="left" xml:space="preserve" transform="matrix(0.83743 0 0 0.612484 27.1921 42.498)" stroke="#000000">nimble</text>
  <text fill="#0000ff" stroke-width="0" stroke-opacity="null" fill-opacity="null" x="-35.11128" y="-92.3134" id="svg_142" font-size="24" font-family="Helvetica, Arial, sans-serif" text-anchor="left" xml:space="preserve" transform="matrix(0.477688 0 0 0.516652 129.638 73.1244)" stroke="#000000" font-weight="bold">JS</text>
 </g>
</svg>
