<?xml version="1.0" encoding="utf-8"?>
<!-- Generator: Adobe Illustrator 19.1.0, SVG Export Plug-In . SVG Version: 6.00 Build 0)  -->
<svg version="1.1"
	 id="svg4886" xmlns:inkscape="http://www.inkscape.org/namespaces/inkscape" xmlns:svg="http://www.w3.org/2000/svg" xmlns:sodipodi="http://sodipodi.sourceforge.net/DTD/sodipodi-0.dtd" xmlns:rdf="http://www.w3.org/1999/02/22-rdf-syntax-ns#" xmlns:cc="http://creativecommons.org/ns#" xmlns:dc="http://purl.org/dc/elements/1.1/" sodipodi:docname="logo-monochrome.svg" inkscape:export-filename="/home/philip/Development/Nim/assets/Art/logo-monochrome-black.png" inkscape:version="0.91 r13725" inkscape:export-xdpi="90" inkscape:export-ydpi="90"
	 xmlns="http://www.w3.org/2000/svg" xmlns:xlink="http://www.w3.org/1999/xlink" x="0px" y="0px" viewBox="-383 273 512 256"
	 style="enable-background:new -383 273 512 256;" xml:space="preserve">
<style type="text/css">
	.st0{fill:#CEB54D;}
	.st1{display:none;fill:#FFFFFF;}
	.st2{fill:none;}
	.st3{font-family:'PT Sans Caption';}
	.st4{font-size:63px;}
</style>
<path class="st0" d="M41.2,453.5h-310.4c-6.6,0-12-5.4-12-12v-64.1c0-6.6,5.4-12,12-12H41.2c6.6,0,12,5.4,12,12v64.1
	C53.2,448.1,47.8,453.5,41.2,453.5z"/>
<sodipodi:namedview  bordercolor="#666666" pagecolor="#ffffff" inkscape:zoom="1" borderopacity="1.0" inkscape:cy="83.17185" inkscape:cx="266.05999" units="px" showgrid="false" id="base" inkscape:current-layer="layer1" inkscape:document-units="px" inkscape:pageopacity="0" inkscape:pageshadow="2" inkscape:snap-global="false">
	</sodipodi:namedview>
<path id="path4870" inkscape:connector-curvature="0" class="st1" d="M588,418.9h-47.3v12c0,2.6,0.8,4.9,2.3,6.9
	c1.5,2,3.4,3,5.7,2.9h39v8.3h-41.5c-3.7,0-6.9-1.4-9.6-4.3c-2.6-3-3.9-6.5-3.9-10.7v-40.6c0-4.1,1.3-7.6,3.9-10.5
	c2.7-3,5.9-4.5,9.6-4.5h28.4c3.7,0,6.8,1.5,9.4,4.5c2.7,2.9,4,6.4,4,10.5L588,418.9 M579.8,411.3v-14.8c0-2.6-0.8-4.9-2.3-6.9
	c-1.5-2-3.5-2.9-5.9-2.9h-23c-2.3,0-4.2,1-5.7,2.9c-1.5,2-2.7,4.3-2.3,6.9v14.8H579.8 M512.3,342.6L512.2,449h-42.1
	c-3.7,0-6.9-1.4-9.6-4.3c-2.6-3-3.9-6.5-3.9-10.7l0.2-40.6c0.1-4.1,1.4-7.6,4-10.5c2.6-3,5.7-4.5,9.4-4.5h33.6l0.2-35.8H512.3
	 M503.8,441.4l-0.2-55.4h-31c-2.3,0-4.2,1.1-5.7,3.3c-1.5,2.2-2.3,4.6-2.3,7.2l0.2,34.4c0,2.6,0.7,5.1,2.2,7.2
	c1.4,2.2,3.3,3.3,5.6,3.3H503.8 M437,434c0,4.1-1.3,7.7-4,10.7c-2.6,2.9-5.7,4.3-9.4,4.3h-31.5c-3.7,0-6.9-1.4-9.6-4.3
	c-2.6-3-3.9-6.5-3.9-10.7v-40.6c0-4.1,1.3-7.6,3.9-10.5c2.7-3,5.9-4.5,9.6-4.5h31.5c3.7,0,6.8,1.5,9.4,4.5c2.7,2.9,4,6.4,4,10.5V434
	 M428.8,430.9v-34.4c0-2.6-0.8-4.9-2.3-6.9c-1.5-2-3.5-2.9-5.9-2.9h-26c-2.3,0-4.2,1-5.7,2.9c-1.5,2-2.3,4.2-2.3,6.9v34.4
	c0,2.6,0.8,4.9,2.3,6.9c1.5,2,3.4,2.9,5.7,2.9h26c2.4,0,4.3-1,5.9-2.9C428.1,435.9,428.8,433.6,428.8,430.9 M357.3,416.7h-8.2v-20.1
	c0-2.6-0.8-4.9-2.3-6.9c-1.5-2-3.5-2.9-5.9-2.9h-23c-2.3,0-4.2,1-5.7,2.9c-1.5,2-2.3,4.2-2.3,6.9v34.4c0,2.6,0.8,4.9,2.3,6.9
	c1.5,2,3.4,2.9,5.7,2.9h38.9l0.2,8.3h-41.5c-3.7,0-6.9-1.4-9.6-4.3c-2.6-3-3.9-6.5-3.9-10.7v-40.6c0-4.1,1.3-7.6,3.9-10.5
	c2.7-3,5.9-4.5,9.6-4.5h28.4c3.7,0,6.8,1.5,9.4,4.5c2.7,2.9,4,6.4,4,10.5L357.3,416.7"/>
<path d="M74.5,366.7c-0.1-0.9-0.2-1.9-0.3-2.8c0.1,1,0.2,2.1,0.2,3.1C74.4,366.9,74.5,366.8,74.5,366.7z"/>
<rect x="-251.7" y="388.1" class="st2" width="315.3" height="50.3"/>
<text transform="matrix(1 0 0 1 -213.5114 432.1879)" class="st3 st4">NIMBLE</text>
<circle cx="-273.6" cy="409.5" r="44"/>
<g id="XMLID_1_">
	<path class="st0" d="M-240.2,394.6l-3.9,14.4l-0.4,1l-5.1,16.1c0,0,0,0,0,0c-2,4.7-6.1,8.1-10.6,10.4c-4.5,2.3-9.5,3.4-13.5,3.4
		c-4,0-8.9-1.1-13.5-3.4s-8.6-5.7-10.6-10.4c0,0,0,0,0,0l-5.1-16.1l-0.4-1l-3.9-14.4l5.8,2.7c0.9-1,2-2.1,4.2-3.5l3.4-7.8l5.6,4.9
		c2.9-0.8,5.8-1.5,9.2-1.5l5.2-5.6l5.2,5.6c3.4-0.1,6.4,0.7,9.2,1.5l5.6-4.9l3.4,7.8c2.2,1.4,3.3,2.5,4.2,3.5L-240.2,394.6z"/>
	<g id="XMLID_3_">
		<g>
			<path d="M-251.7,414.9l-3.3,4.8l-6.3,2.1l-12.1-7.6c-0.1-0.1-0.3-0.1-0.4,0l-12.1,7.6l-6.3-2.1l-3.3-4.8c1.2-2.6,3.5-4.9,6.9-6.7
				c3.9-2.1,9.2-3.4,15-3.4c5.7,0,11,1.3,15,3.4C-255.3,409.9-252.9,412.3-251.7,414.9z"/>
		</g>
		<g>
		</g>
	</g>
	<g id="XMLID_2_">
		<g>
			<path d="M-243.7,399.1l-2.8,9.1l-1.7,5l-1.6-0.5c0,0-0.1,0-0.1,0c-1.6-2.7-4.2-5.1-7.5-6.8c-4.4-2.3-10-3.7-16.2-3.7
				c-6.2,0-11.9,1.4-16.3,3.7c-3.3,1.8-5.9,4.1-7.4,6.8c0,0-0.1,0-0.1,0l-1.6,0.5l-1.7-5l-2.8-9.1l2.8,1.3l0.6-0.7
				c1.2-1.3,1.8-2.2,4.7-3.9l0.3-0.2l2.3-5.3l4,3.5l0.7-0.2c3.2-0.9,6.3-1.7,9.8-1.5l0.6,0l4.1-4.4l4.1,4.4l0.6,0
				c3.5-0.2,6.5,0.7,9.8,1.5l0.7,0.2l4-3.5l2.3,5.3l0.3,0.2c2.9,1.8,3.5,2.6,4.7,3.9l0.6,0.7L-243.7,399.1z"/>
		</g>
		<g>
		</g>
	</g>
</g>
</svg>
